<svg xmlns="http://www.w3.org/2000/svg" width="716.64839" height="156.7206" viewBox="0 0 716.64839 156.7206"><defs><style>.cls-1{fill:#48ec48;}.cls-2{fill:#191919;}.cls-3{fill:#266bff;}.cls-3,.cls-4,.cls-5,.cls-7{opacity:0.8;}.cls-4{fill:#ff3e3e;}.cls-5{fill:#00171f;}.cls-6{fill:#fff;}</style></defs><g id="Layer_2" data-name="Layer 2"><g id="Layer_1-2" data-name="Layer 1"><path class="cls-1" d="M82.64632,89.83915v23.914h-12.582V108.523A42.38121,42.38121,0,0,0,82.64632,89.83915Z"/><path d="M67.8714,0V42.41688a42.4169,42.4169,0,1,0,0,67.8714q1.12661-.847,2.19293-1.7653A42.32478,42.32478,0,0,0,84.83925,76.3526V0ZM82.64632,76.3526a40.09988,40.09988,0,0,1-12.582,29.19347q-1.06082,1.00325-2.19293,1.93525a40.22394,40.22394,0,1,1,0-62.25748v20.345a27.6112,27.6112,0,1,0,2.19293,10.7838V2.19294h12.582Zm-14.77492,0a25.45177,25.45177,0,1,1-25.449-25.44906A25.447,25.447,0,0,1,67.8714,76.3526Z"/><path d="M84.83925,76.3526v39.59346H67.8714v-5.65778q1.12661-.847,2.19293-1.7653v5.23014h12.582v-23.914A42.22137,42.22137,0,0,0,84.83925,76.3526Z"/><path d="M498.93286,36.76186v5.6523q-1.12662.847-2.19294,1.76529V38.9548h-12.582V62.86329a42.25475,42.25475,0,0,0-2.19294,13.492V36.76186Z"/><path d="M524.38188,33.933a42.23256,42.23256,0,0,0-25.449,8.48121q-1.12662.847-2.19294,1.76529A42.325,42.325,0,0,0,481.965,76.35532l-.00083,39.59154H498.932l.00084-39.59154a25.45514,25.45514,0,0,1,25.449-25.45451h11.31556V33.933Zm9.12263,14.77492h-9.12263a27.64988,27.64988,0,0,0-27.642,27.64745v37.41077h-12.582V76.35532a40.09982,40.09982,0,0,1,12.582-29.19347q1.06082-1.00324,2.19294-1.93525a40.08092,40.08092,0,0,1,25.449-9.10071h9.12263Z"/><path class="cls-2" d="M533.50451,36.12589v12.582h-9.12263a27.64988,27.64988,0,0,0-27.642,27.64745v37.41077h-12.582V76.35532a40.09982,40.09982,0,0,1,12.582-29.19347q1.06082-1.00324,2.19294-1.93525a40.08092,40.08092,0,0,1,25.449-9.10071Z"/><path d="M266.14327,36.76351v79.17462h16.979V36.76351Zm14.789,76.985H268.33336V38.95375h12.59893Z"/><polygon points="283.113 19.794 283.113 36.762 280.921 36.762 280.921 21.987 268.339 21.987 268.339 36.762 266.146 36.762 266.146 19.794 283.113 19.794"/><rect class="cls-1" x="268.3386" y="21.98681" width="12.58195" height="14.77489"/><path class="cls-3" d="M104.38918,61.5823a42.34055,42.34055,0,0,0-2.58765,12.58195h-6.3431V61.5823Z"/><path d="M95.45843,61.5823V74.16425h6.3431c-.03841.72367-.05481,1.45832-.05481,2.19293H93.26549V59.38936h12.0119c-.318.71819-.61409,1.4528-.88821,2.19294Z"/><path d="M118.71455,76.35718H186.586c0-.73461-.01647-1.46926-.05481-2.19293a42.34275,42.34275,0,0,0-2.58765-12.58195c-.27412-.74014-.57019-1.47475-.88821-2.19294a42.43783,42.43783,0,0,0-77.77792,0c-.318.71819-.61409,1.4528-.88821,2.19294a42.34055,42.34055,0,0,0-2.58765,12.58195c-.03841.72367-.05481,1.45832-.05481,2.19293a42.4196,42.4196,0,0,0,40.22944,42.36208c.72364.03838,1.45825.05484,2.19293.05484V101.80624c-.74017,0-1.46929-.03289-2.19293-.09868A25.44528,25.44528,0,0,1,118.71455,76.35718Zm23.26161,40.16365a40.2724,40.2724,0,0,1-38.0365-40.16365c0-.73461.02188-1.46926.0603-2.19293A39.89114,39.89114,0,0,1,106.7521,61.5823c.29058-.74014.60854-1.47475.94844-2.19294a40.21742,40.21742,0,0,1,72.93162,0c.33983.71819.65785,1.4528.94843,2.19294a39.89473,39.89473,0,0,1,2.75215,12.58195H118.81326a25.27334,25.27334,0,0,1,4.62706-12.58195h44.07805a26.33584,26.33584,0,0,0-1.546-2.19294,27.61066,27.61066,0,0,0-43.61206,0q-.83058,1.06081-1.55155,2.19294a27.44208,27.44208,0,0,0-4.19942,12.58195c-.0603.72367-.08774,1.45283-.08774,2.19293a27.678,27.678,0,0,0,25.45455,27.55426ZM125.19465,59.38936a25.45955,25.45955,0,0,1,37.94334,0Z"/><path d="M468.00235,60.50861a39.60343,39.60343,0,0,0-12.582-17.8231c-.70724-.57567-1.44186-1.12939-2.19293-1.6447a39.56861,39.56861,0,0,0-45.24579,0q-1.12662.78119-2.19294,1.65019a39.472,39.472,0,0,0-14.77492,30.83818v42.43261h16.96786V73.52918a22.6229,22.6229,0,1,1,45.24579,0v42.43261h16.96782V73.52918A39.5276,39.5276,0,0,0,468.00235,60.50861Zm0,53.26024h-12.582V73.52918a24.81583,24.81583,0,0,0-49.63166,0v40.23967h-12.582V73.52918a37.302,37.302,0,0,1,12.582-27.949q1.06081-.954,2.19294-1.8092a37.316,37.316,0,0,1,45.24579-.00548c.75107.57567,1.48569,1.17871,2.19293,1.81468a37.29327,37.29327,0,0,1,12.582,27.949Z"/><path class="cls-4" d="M405.78874,38.95749V42.691a39.61691,39.61691,0,0,0-12.582,17.81761V38.95749Z"/><path d="M407.98168,36.76455v4.27626q-1.12662.78119-2.19294,1.65019V38.95749h-12.582V60.50861a39.52838,39.52838,0,0,0-2.19294,13.02057V36.76455Z"/><path d="M714.45546,60.50861a39.6035,39.6035,0,0,0-12.582-17.8231c-.70725-.57567-1.44186-1.12939-2.19294-1.6447a39.56861,39.56861,0,0,0-45.24579,0q-1.12662.78119-2.19294,1.65019a39.472,39.472,0,0,0-14.77492,30.83818v42.43261h16.96786V73.52918a22.6229,22.6229,0,1,1,45.24579,0v42.43261h16.96782V73.52918A39.5276,39.5276,0,0,0,714.45546,60.50861Zm0,53.26024h-12.582V73.52918a24.81584,24.81584,0,0,0-49.63167,0v40.23967h-12.582V73.52918a37.302,37.302,0,0,1,12.582-27.949q1.06082-.954,2.19294-1.8092a37.316,37.316,0,0,1,45.24579-.00548c.75108.57567,1.48569,1.17871,2.19294,1.81468a37.29331,37.29331,0,0,1,12.582,27.949Z"/><path d="M654.43478,36.76455v4.27626q-1.12662.78119-2.19294,1.65019V38.95749h-12.582V60.50861a39.52838,39.52838,0,0,0-2.19294,13.02057V36.76455Z"/><path class="cls-2" d="M714.45546,73.52918v40.23967h-12.582V73.52918a24.81584,24.81584,0,0,0-49.63167,0v40.23967h-12.582V73.52918a37.302,37.302,0,0,1,12.582-27.949q1.06082-.954,2.19294-1.8092a37.316,37.316,0,0,1,45.24579-.00548c.75108.57567,1.48569,1.17871,2.19294,1.81468A37.29331,37.29331,0,0,1,714.45546,73.52918Z"/><path d="M546.98569,92.27321a39.60332,39.60332,0,0,0,12.582,17.8231c.70724.57568,1.44186,1.1294,2.19293,1.64471a39.56865,39.56865,0,0,0,45.24579,0q1.12662-.7812,2.19294-1.65019a39.472,39.472,0,0,0,14.77492-30.83818V36.82H607.00636V79.25265a22.6229,22.6229,0,1,1-45.24579,0V36.82H544.79275V79.25265A39.52754,39.52754,0,0,0,546.98569,92.27321Zm0-53.26024h12.582V79.25265a24.81583,24.81583,0,0,0,49.63166,0V39.013h12.582V79.25265a37.302,37.302,0,0,1-12.582,27.949q-1.06082.954-2.19294,1.8092a37.316,37.316,0,0,1-45.24579.00549c-.75107-.57567-1.48569-1.17872-2.19293-1.81469a37.29323,37.29323,0,0,1-12.582-27.949Z"/><path d="M607.00636,116.01727V111.741q1.12662-.7812,2.19294-1.65019v3.7335h12.582V92.27321a39.52832,39.52832,0,0,0,2.19294-13.02056v36.76462Z"/><path class="cls-2" d="M546.98569,79.25265V39.013h12.582V79.25265a24.81583,24.81583,0,0,0,49.63166,0V39.013h12.582V79.25265a37.302,37.302,0,0,1-12.582,27.949q-1.06082.954-2.19294,1.8092a37.316,37.316,0,0,1-45.24579.00549c-.75107-.57567-1.48569-1.17872-2.19293-1.81469A37.29323,37.29323,0,0,1,546.98569,79.25265Z"/><path class="cls-5" d="M298.3085,61.7806c-.47009,1.2-.88,2.44-1.24,3.69995A35.68862,35.68862,0,0,1,298.3085,61.7806Z"/><path class="cls-5" d="M357.48856,93.4706c-.51.64-1.04,1.25995-1.6001,1.85-.25.26-.5.52-.77.78.26-.26.51-.52.76-.78C356.43851,94.73055,356.97855,94.11056,357.48856,93.4706Z"/><path class="cls-5" d="M360.29849,127.10055a27.02839,27.02839,0,0,1-2.29992,3.65A29.17115,29.17115,0,0,0,360.29849,127.10055Z"/><path class="cls-5" d="M363.23856,117.67055c-.04.37-.09009.73-.15015,1.1-.09985.59-.21,1.18-.34985,1.75.12988-.57.24-1.16.34-1.75C363.13846,118.4006,363.18851,118.04055,363.23856,117.67055Z"/><path class="cls-6" d="M363.07852,118.77059c-.1.59-.21008,1.18-.34,1.75.13989-.57.25-1.16.34985-1.75.06006-.37.11011-.73.15015-1.1C363.18851,118.04055,363.13846,118.4006,363.07852,118.77059Zm-5.08,11.98a27.02839,27.02839,0,0,0,2.29992-3.65A29.17115,29.17115,0,0,1,357.99857,130.75057Zm-2.12012-35.43c-.25.26-.5.52-.76.78.27-.26.52-.52.77-.78.56006-.59,1.09009-1.21,1.6001-1.85C356.97855,94.11056,356.43851,94.73055,355.87845,95.32058Zm-58.80994-29.84c.36-1.25995.7699-2.5,1.24-3.69995A35.68862,35.68862,0,0,0,297.06851,65.48055Z"/><path d="M376.02847,62.86056a42.38961,42.38961,0,0,0-12.58-18.68c-.72-.61-1.43994-1.2-2.2-1.76a42.42836,42.42836,0,0,0-63.40015,52.91c.41016.81.8501,1.61,1.3,2.39a42.73927,42.73927,0,0,0,9.53,11.25c.63.53,1.29,1.04,1.95,1.53a42.43789,42.43789,0,0,0,50.34009,0,3.03737,3.03737,0,0,0,.28-.22v4.02a25.451,25.451,0,0,1-25.45008,25.45v16.97a42.40216,42.40216,0,0,0,32.18006-14.78c.6-.7,1.2-1.44,1.76-2.19a42.15681,42.15681,0,0,0,8.25-20.98,41.31446,41.31446,0,0,0,.23-4.47v-37.95A42.4218,42.4218,0,0,0,376.02847,62.86056Zm0,51.44c0,.76-.01989,1.52-.06994,2.28-.03.73-.1001,1.47-.18006,2.19-.08.76-.19006,1.5-.31994,2.25-.06006.37-.13.74-.2,1.11-.15015.73-.31006,1.46-.5,2.18a38.00576,38.00576,0,0,1-1.34009,4.24c-.26.68-.54,1.36005-.84,2.03a39.01317,39.01317,0,0,1-2.55,4.83c-.44006.71-.9,1.4-1.38,2.07995-.54.77-1.12,1.53-1.72,2.26-.62.76-1.27,1.49-1.93994,2.19a40.05758,40.05758,0,0,1-26.99,12.52v-12.61a27.4015,27.4015,0,0,0,8.58984-2.1,28.45744,28.45744,0,0,0,4.58008-2.48c.48-.33.93994-.66,1.4-1.01.46-.35.9-.71,1.34-1.09q.6449-.57,1.26-1.17c.2-.19.41-.4.61-.61.39-.42.78-.84,1.15-1.28s.72-.89,1.07007-1.35v-.01a29.17115,29.17115,0,0,0,2.29992-3.65,26.03655,26.03655,0,0,0,1.42005-3.18994,27.65277,27.65277,0,0,0,1.02-3.39c.12988-.57.24-1.16.34-1.75.05994-.37.11-.73.16-1.1.09-.74.1499-1.48.18994-2.24.01-.37.02-.75.02-1.13v-37.95a27.645,27.645,0,1,0-55.29,0,26.83846,26.83846,0,0,0,.52,5.33c.07007.41.15991.82.26,1.22q.15.59994.33008,1.2a28.65623,28.65623,0,0,0,1.43994,3.85c.23.5.47.98.73,1.47a28.31924,28.31924,0,0,0,4.28,5.9c.49.53,1.01,1.04,1.55,1.52a27.58753,27.58753,0,0,0,37.04992.01c.2699-.25.53992-.49.79993-.75.26-.26.51-.52.76-.78.56006-.59,1.1001-1.21,1.61011-1.85a28.00035,28.00035,0,0,0,3.76-6.33v20.34c-.12012.1-.25.2-.38013.30005-.12988.1-.26.19995-.37988.3a39.722,39.722,0,0,1-4.02,2.76c-.93006.56-1.88013,1.09-2.86011,1.57-.49.25-.98.48-1.48.7a40.17141,40.17141,0,0,1-7.85986,2.57c-1.02.22-2.06006.4-3.11011.54a39.44626,39.44626,0,0,1-5.36.36c-.38,0-.76,0-1.13-.02-.38-.01-.76-.03-1.13-.05s-.75-.04-1.12-.07c-.37-.03-.74-.07-1.11-.11-.49-.05-.97009-.12-1.46008-.19-.6499-.1-1.28992-.21-1.92993-.34-.85-.17-1.68994-.37-2.52-.59-.31006-.08-.61-.16-.90991-.25-.59009-.17-1.19007-.36-1.77-.57-.59009-.2-1.17005-.41-1.74-.64-.51-.2-1.01-.41-1.51-.64-1-.44-1.98-.93-2.93006-1.45a39.43287,39.43287,0,0,1-5.43-3.57c-.62988-.5-1.24-1.01-1.83984-1.54-.2201-.19-.43018-.38-.64014-.58-.23-.21-.47-.42-.68994-.64a40.20036,40.20036,0,0,1-7.6001-10c-.41992-.79-.81982-1.59-1.18994-2.4a40.08716,40.08716,0,0,1-2.6499-7.97c-.15015-.7-.29-1.4-.40015-2.1-.11987-.71-.22-1.42-.28992-2.14-.03991-.36-.07995-.72-.1-1.08q-.09009-1.095-.12012-2.19c-.00989-.18-.00989-.37-.00989-.55-.01-.18-.01-.37-.01-.55a39.74079,39.74079,0,0,1,1.5-10.87,35.68862,35.68862,0,0,1,1.24-3.69995q.165-.45007.36-.9c.36-.87.75-1.72,1.16992-2.56a40.77749,40.77749,0,0,1,2.08008-3.64c.42993-.68.89-1.34,1.37-2,.4701-.64.96009-1.28,1.48011-1.9.40991-.5.82983-.99,1.26989-1.46.43006-.48.87-.94,1.33-1.4a40.14382,40.14382,0,0,1,53.88013-2.7c.09985.08.18994.16.2799.24.01.01.03.02.04.03.65.53,1.2699,1.09,1.88,1.67a40.11551,40.11551,0,0,1,12.58,29.18994Zm-14.7799-37.95c0,.23,0,.45-.01.68005,0,.16-.01.33-.01.49-.01.16-.02.32-.03.47l-.03.45c-.03.28-.05.56-.09.84v.04c-.03.28-.06994.55-.11.83a23.93257,23.93257,0,0,1-.48,2.41c-.07007.31-.16.61-.24.91-.08008.24-.15015.49-.23.73,0,.02-.01.03-.02.05,0,.01,0,.01-.01.02-.05.18-.12012.37-.18006.55-.06994.2-.15.4-.22009.59-.12988.35-.2699.68994-.40991,1.01995-.11.26-.22.5-.34009.74-.10986.25-.23.49006-.34985.73a1.86791,1.86791,0,0,0-.1001.2c-.07.13-.13989.26-.21.38a1.28931,1.28931,0,0,1-.11.2c-.12.22-.24.43-.36.64-.14.23-.28.46-.42005.68-.15.23-.29992.45-.45007.68-.1499.22-.30994.44-.46.65-.32.43-.6499.85-.99,1.27-.16992.2-.34.4-.52.6-.17993.21-.35986.4-.53992.6-.13.13-.25.26-.38.39-.07007.08-.15.16-.23.24-.11011.11-.23.22-.34009.33l-.02.02c-.18994.17-.36987.35-.55994.52-.02.01-.02.02-.0299.03-.11011.09-.21009.18-.31006.27-.16.13-.31006.26-.47.4-.15015.12-.31006.25-.47.37q-.25526.21-.51.39c-.16016.12-.31006.24-.4701.35q-.54.375-1.07995.72a.42026.42026,0,0,0-.07007.05q-.19482.12-.38989.24c-.17.11-.3501.21-.53.31-.18006.1-.36011.21-.54.3-.25.14-.51.28-.77.4-.03.02-.07007.04-.1.06-.26.12-.52.25-.78.36-.38.17-.75988.34-1.15.49-.37988.15-.78.3-1.17993.43005-.37.12-.73.24-1.11011.34-.42993.13-.87988.25-1.32983.35l-.53.11c-.02.01-.03.01-.05.02-.31006.06-.61.11005-.92993.17-.31006.04-.64014.09-.96009.14h-.01989c-.31006.04-.63013.07-.95008.1-.04,0-.06994.01-.1.01-.29.03-.57007.04-.86011.06h-.08984c-.41016.02-.81006.03-1.2201.03s-.80993-.01-1.22-.03h-.09c-.29-.02-.57007-.03-.86011-.06-.03,0-.05994-.01-.1-.01-.31994-.03-.64-.06-.95-.1h-.02c-.31994-.05-.65-.1-.97009-.14-.30994-.06-.60986-.11-.91992-.17-.02-.00995-.03-.00995-.05-.02l-.53-.11c-.45-.1-.8999-.22-1.33984-.35-.37012-.1-.74-.22-1.1001-.34-.3999-.13-.8-.28-1.17993-.43005-.39-.15-.77-.31995-1.15-.49-.26-.11-.52-.24-.78-.36a1.07526,1.07526,0,0,0-.11-.06c-.25-.12-.51-.26-.76-.4-.17993-.09-.36-.19995-.54-.3-.17993-.1-.35986-.2-.53-.31q-.19482-.12-.38989-.24a.42026.42026,0,0,0-.07007-.05q-.54-.34506-1.08-.72c-.16-.11-.30993-.23-.47009-.35q-.25488-.18-.50989-.39c-.16-.12-.31994-.25-.47009-.37-.15991-.14-.30994-.27-.47-.4-.1-.09-.2-.18-.30994-.27,0-.01-.01-.01-.02-.03-.12-.11-.24-.21-.36-.32-.13-.13-.27-.25995-.4-.38995l-.02-.02-.00988-.01c-.2201-.21-.43018-.43-.65015-.65a1.07864,1.07864,0,0,1-.09985-.11005l-.04-.04c-.17005-.18-.34009-.36-.5-.55-.15-.17-.29-.34-.44007-.51-.19006-.22-.36-.44-.53991-.67-.18006-.23-.36011-.46-.53-.69-.15-.22-.31006-.44-.46-.66-.25-.37-.49-.74-.73011-1.13-.1-.17-.21-.35-.30993-.53q-.15015-.25506-.3-.54c-.1499-.27-.29-.54-.42993-.82995-.13013-.26-.25-.51-.37012-.78l-.03-.06c-.07983-.18-.15991-.37-.24-.55-.07983-.19-.15991-.39-.23-.58-.05994-.14-.11987-.29-.16992-.43l-.12-.33c-.09-.25994-.18005-.50994-.26-.78-.07995-.23-.16-.47-.22009-.71-.07983-.29-.16992-.58-.24-.87-.18994-.79-.34985-1.59-.48-2.41,0-.02-.01-.03-.01-.04-.03-.26-.07-.51-.09-.77-.00988-.08-.01989-.15-.0299-.22-.02-.19-.04-.37-.05-.56a1.94607,1.94607,0,0,1-.02-.25c-.01-.11-.02-.21-.02-.32a3.58869,3.58869,0,0,1-.03-.47c-.01-.16-.02-.33-.02-.49,0-.23-.01-.45-.01-.68005a25.45008,25.45008,0,0,1,50.90015,0Z"/><path class="cls-3" d="M376.02431,38.95055V62.86046a42.38936,42.38936,0,0,0-12.58-18.67993v-5.23Z"/><path d="M378.21431,36.75036V76.35045a42.42373,42.42373,0,0,0-2.19-13.49V38.95055h-12.58v5.23c-.72-.61011-1.44-1.20019-2.2-1.76025V36.75036Z"/><path d="M254.29724,90.46938a25.48083,25.48083,0,0,0-20.49-22.17,24.44758,24.44758,0,0,0-4.81-.46h-9.89a8.485,8.485,0,1,1,0-16.97h7.06v.02h22.63v-16.99h-29.69a25.45081,25.45081,0,0,0-25.45,25.45,26.60025,26.60025,0,0,0,.15,2.84,25.462,25.462,0,0,0,20.48,22.16,24.62584,24.62584,0,0,0,4.82.45h9.89a8.49,8.49,0,1,1,0,16.98h-59.38v16.97h59.38a25.46154,25.46154,0,0,0,25.45-25.47A26.16173,26.16173,0,0,0,254.29724,90.46938Zm-25.3,26.09h-57.2v-12.58h57.2a10.695,10.695,0,0,0,10.68-10.7,10.96519,10.96519,0,0,0-.6-3.54,10.721,10.721,0,0,0-10.08-7.11h-9.89a22.90262,22.90262,0,0,1-4.41-.44,23.25862,23.25862,0,0,1-18.71-20.25,23.82669,23.82669,0,0,1-.14-2.59,23.285,23.285,0,0,1,23.26-23.25h27.5v12.59h-18.24v-.01h-9.26a10.68866,10.68866,0,0,0-10.68,10.67,11.13114,11.13114,0,0,0,.6,3.56,10.71627,10.71627,0,0,0,10.08,7.12h9.89a23.71865,23.71865,0,0,1,4.41.41,23.27,23.27,0,0,1,13.63,8.18,22.945,22.945,0,0,1,5.08,12.09,23.85834,23.85834,0,0,1,.14,2.57A23.29781,23.29781,0,0,1,228.99725,116.55941Z"/><rect class="cls-4" x="171.79724" y="103.97939" width="12.54004" height="12.56"/><rect class="cls-7" x="171.79724" y="103.95937" width="12.54004" height="0.02002"/><polygon points="186.587 101.759 186.587 118.729 171.797 118.729 171.797 116.539 184.387 116.539 184.387 103.959 171.797 103.959 171.797 101.769 186.587 101.759"/></g></g></svg>